#N canvas 8 82 1585 846 10;
#X obj 196 326 phasor~;
#X obj 196 204 mtof;
#X obj 299 298 * 2;
#X obj 299 319 osc~;
#X obj 289 375 *~ 0.3;
#X obj 195 408 +~;
#X obj 197 448 cos~;
#X obj 196 481 *~;
#X obj 435 238 f;
#X obj 435 304 vline~;
#X obj 435 324 *~;
#X obj 435 344 *~;
#X obj 298 341 *~;
#X obj 576 83 line;
#X msg 576 50 1000 \, 60 \$1;
#X obj 538 196 del \$1;
#X floatatom 539 115 5 0 0 0 - - -;
#X obj 573 163 + 2;
#X obj 564 242 s \$0-retrigger;
#X obj 538 150 r \$0-retrigger;
#X msg 435 279 1 2 \, 0 \$1 2;
#X msg 709 48 1000 \$1;
#X obj 645 6 del \$1;
#X obj 552 -18 random 50000;
#X obj 576 15 + 1000;
#X obj 709 -5 random 50000;
#X obj 709 23 + 1000;
#X obj 813 19 del \$1;
#X obj 206 111 loadbang;
#X obj 476 -51 loadbang;
#X text 687 -81 Some disgusting logic to make the timing go down and
up;
#X floatatom 354 356 5 0 0 0 - - -;
#X obj 206 131 f \$1;
#X obj 195 505 outlet~;
#X obj 196 223 t f f;
#X obj 281 131 inlet;
#X obj 281 173 f;
#X obj 330 238 t b;
#X obj 403 205 del 2;
#X connect 0 0 5 0;
#X connect 1 0 34 0;
#X connect 2 0 3 0;
#X connect 3 0 12 0;
#X connect 4 0 5 1;
#X connect 5 0 6 0;
#X connect 6 0 7 0;
#X connect 7 0 33 0;
#X connect 8 0 20 0;
#X connect 8 0 37 0;
#X connect 9 0 10 0;
#X connect 9 0 10 1;
#X connect 10 0 11 0;
#X connect 10 0 11 1;
#X connect 11 0 12 1;
#X connect 11 0 7 1;
#X connect 12 0 4 0;
#X connect 13 0 16 0;
#X connect 14 0 13 0;
#X connect 15 0 8 0;
#X connect 15 0 18 0;
#X connect 16 0 17 0;
#X connect 16 0 8 1;
#X connect 17 0 15 1;
#X connect 19 0 15 0;
#X connect 20 0 9 0;
#X connect 21 0 13 0;
#X connect 22 0 25 0;
#X connect 23 0 24 0;
#X connect 24 0 14 0;
#X connect 24 0 22 0;
#X connect 25 0 26 0;
#X connect 25 0 27 0;
#X connect 26 0 21 0;
#X connect 27 0 23 0;
#X connect 28 0 32 0;
#X connect 28 0 38 0;
#X connect 29 0 23 0;
#X connect 29 0 15 0;
#X connect 31 0 4 1;
#X connect 32 0 36 1;
#X connect 34 0 0 0;
#X connect 34 1 2 0;
#X connect 35 0 36 1;
#X connect 36 0 1 0;
#X connect 37 0 36 0;
#X connect 38 0 8 0;
