#N canvas 467 166 558 595 10;
#X obj 165 515 dac~;
#X obj -71 42 bellPM~ 60;
#X obj 48 49 bellPM~ 65;
#X obj 145 413 *~ 0.3;
#X obj 215 413 *~ 0.3;
#X floatatom 10 36 5 0 0 0 - - -;
#X obj -71 68 pan~;
#X obj 49 78 pan~;
#X floatatom 131 50 5 0 0 0 - - -;
#X obj 178 66 pan~;
#X floatatom 260 38 5 0 0 0 - - -;
#X obj 177 37 bellPM~ 70;
#X obj 298 76 pan~;
#X floatatom 380 48 5 0 0 0 - - -;
#X obj 297 47 bellPM~ 72;
#X obj 308 136 pan~;
#X floatatom 390 108 5 0 0 0 - - -;
#X obj 307 107 bellPM~ 74;
#X obj 328 186 pan~;
#X floatatom 410 158 5 0 0 0 - - -;
#X obj 327 157 bellPM~ 77;
#X obj 338 276 pan~;
#X floatatom 420 248 5 0 0 0 - - -;
#X obj 337 247 bellPM~ 79;
#X obj 171 463 rev3~ 95 90;
#X connect 1 0 6 0;
#X connect 2 0 7 0;
#X connect 3 0 24 0;
#X connect 3 0 0 0;
#X connect 4 0 24 1;
#X connect 4 0 0 1;
#X connect 5 0 6 1;
#X connect 6 0 3 0;
#X connect 6 1 4 0;
#X connect 7 0 3 0;
#X connect 7 1 4 0;
#X connect 8 0 7 1;
#X connect 9 0 3 0;
#X connect 9 1 4 0;
#X connect 10 0 9 1;
#X connect 11 0 9 0;
#X connect 12 0 3 0;
#X connect 12 1 4 0;
#X connect 13 0 12 1;
#X connect 14 0 12 0;
#X connect 15 0 3 0;
#X connect 15 1 4 0;
#X connect 16 0 15 1;
#X connect 17 0 15 0;
#X connect 18 0 3 0;
#X connect 18 1 4 0;
#X connect 19 0 18 1;
#X connect 20 0 18 0;
#X connect 21 0 3 0;
#X connect 21 1 4 0;
#X connect 22 0 21 1;
#X connect 23 0 21 0;
#X connect 24 0 0 0;
#X connect 24 1 0 1;
